<svg width="132" height="52" viewBox="0 0 132 52" fill="none" xmlns="http://www.w3.org/2000/svg">
<path d="M25 12C11.1953 12 0 18.2125 0 25.8872C0 33.562 11.1953 39.7778 25 39.7778C38.8047 39.7778 50 33.562 50 25.8872C50 18.2125 38.8047 12 25 12V12ZM25 13.3864C38.3906 13.3864 48.6875 19.343 48.6875 25.8872C48.6875 32.4314 38.3828 38.3914 25 38.3914C11.6094 38.3914 1.3125 32.4314 1.3125 25.8872C1.3125 19.343 11.6172 13.3864 25 13.3864ZM21.9641 16.1394L19.4359 29.9045H22.2563L23.7125 22.0152C26.0078 22.0152 26.9578 21.9195 27.375 22.3931C27.8078 22.8833 27.5859 23.4214 26.3953 29.9029H29.2547C30.4922 23.2019 31.0391 21.7792 29.8953 20.6684C28.8062 19.6071 26.55 19.7936 24.1141 19.7936L24.7859 16.1394H21.9641V16.1394ZM10.1375 19.8035L7.60937 33.5785H10.4484L11.1203 29.9194C14.2953 29.9194 16.2688 30.1637 18.0922 28.3597C20.1094 26.4005 20.6359 22.9131 19.1969 21.1685C18.4469 20.2541 17.2391 19.8035 15.6031 19.8035H10.1359H10.1375ZM32.3125 19.8035L29.7797 33.5785H32.6234L33.2953 29.9194C36.6344 29.9194 38.4828 30.1241 40.2672 28.3597C42.2844 26.4005 42.8125 22.9131 41.3734 21.1685C40.6234 20.2541 39.4156 19.8035 37.7781 19.8035H32.3125V19.8035ZM14.5875 21.9739C16.3609 22.0267 17.375 22.4229 16.9469 24.7748C16.3359 28.0824 14.1813 27.7407 11.5297 27.7407L12.5891 21.9772C13.3234 21.9772 13.9953 21.9558 14.5875 21.9739ZM36.7641 21.9739C38.5406 22.0267 39.5438 22.4229 39.1141 24.7748C38.4953 28.1303 36.2781 27.7407 33.6969 27.7407L34.7562 21.9772C35.4953 21.9772 36.1734 21.9558 36.7641 21.9739V21.9739Z" fill="#787CB5"/>
<path d="M112.357 23.7805C112.357 22.325 112.922 20.9292 113.926 19.9C114.931 18.8709 116.293 18.2927 117.714 18.2927H123.071C123.545 18.2927 123.999 18.4854 124.334 18.8285C124.669 19.1715 124.857 19.6368 124.857 20.122C124.857 20.6071 124.669 21.0724 124.334 21.4154C123.999 21.7585 123.545 21.9512 123.071 21.9512H117.714C117.241 21.9512 116.786 22.1439 116.452 22.487C116.117 22.8301 115.929 23.2953 115.929 23.7805V27.439C115.929 27.9242 116.117 28.3895 116.452 28.7325C116.786 29.0756 117.241 29.2683 117.714 29.2683H119.5C120.921 29.2683 122.283 29.8465 123.288 30.8756C124.293 31.9048 124.857 33.3006 124.857 34.7561V38.4146C124.857 39.8701 124.293 41.2659 123.288 42.2951C122.283 43.3243 120.921 43.9024 119.5 43.9024H114.143C113.669 43.9024 113.215 43.7097 112.88 43.3667C112.545 43.0236 112.357 42.5583 112.357 42.0732C112.357 41.588 112.545 41.1227 112.88 40.7797C113.215 40.4366 113.669 40.2439 114.143 40.2439H119.5C119.974 40.2439 120.428 40.0512 120.763 39.7081C121.098 39.3651 121.286 38.8998 121.286 38.4146V34.7561C121.286 34.2709 121.098 33.8057 120.763 33.4626C120.428 33.1196 119.974 32.9268 119.5 32.9268H117.714C116.293 32.9268 114.931 32.3487 113.926 31.3195C112.922 30.2903 112.357 28.8945 112.357 27.439V23.7805ZM110.571 20.122C110.571 19.6368 110.383 19.1715 110.048 18.8285C109.714 18.4854 109.259 18.2927 108.786 18.2927C108.312 18.2927 107.858 18.4854 107.523 18.8285C107.188 19.1715 107 19.6368 107 20.122V38.4146C107 38.8998 106.812 39.3651 106.477 39.7081C106.142 40.0512 105.688 40.2439 105.214 40.2439H101.643C101.169 40.2439 100.715 40.4366 100.38 40.7797C100.045 41.1227 99.8571 41.588 99.8571 42.0732C99.8571 42.5583 100.045 43.0236 100.38 43.3667C100.715 43.7097 101.169 43.9024 101.643 43.9024H105.214C106.635 43.9024 107.998 43.3243 109.002 42.2951C110.007 41.2659 110.571 39.8701 110.571 38.4146V20.122ZM82 10.9756V40.2439C82 43.1548 83.1288 45.9465 85.1381 48.0048C87.1475 50.0632 89.8727 51.2195 92.7143 51.2195H121.286C124.127 51.2195 126.853 50.0632 128.862 48.0048C130.871 45.9465 132 43.1548 132 40.2439V10.9756C132 8.0647 130.871 5.27301 128.862 3.21468C126.853 1.15636 124.127 0 121.286 0H92.7143C89.8727 0 87.1475 1.15636 85.1381 3.21468C83.1288 5.27301 82 8.0647 82 10.9756V10.9756ZM92.7143 3.65854H121.286C123.18 3.65854 124.997 4.42944 126.336 5.80166C127.676 7.17387 128.429 9.035 128.429 10.9756V40.2439C128.429 42.1845 127.676 44.0456 126.336 45.4179C124.997 46.7901 123.18 47.561 121.286 47.561H92.7143C90.8199 47.561 89.0031 46.7901 87.6635 45.4179C86.324 44.0456 85.5714 42.1845 85.5714 40.2439V10.9756C85.5714 9.035 86.324 7.17387 87.6635 5.80166C89.0031 4.42944 90.8199 3.65854 92.7143 3.65854V3.65854Z" fill="#F7DF1E"/>
</svg>
